HIERARCHY
ROOT Pelvis
{
	OFFSET 0.000000 0.000000 0.000000
	CHANNELS 6 Xposition Yposition Zposition Xrotation Yrotation Zrotation
	JOINT LeftUpLeg_virtual
	{
		OFFSET 0.000000 0.000000 0.000000
		CHANNELS 3 Xrotation Yrotation Zrotation
		JOINT LeftUpLeg
		{
			OFFSET 18.735201 -5.666702 -4.541200
			CHANNELS 3 Xrotation Yrotation Zrotation
			JOINT LeftLeg
			{
				OFFSET -0.021200 -31.938179 0.493100
				CHANNELS 3 Xrotation Yrotation Zrotation
				JOINT LeftFoot
				{
					OFFSET 0.021200 -31.938179 -4.336299
					CHANNELS 3 Xrotation Yrotation Zrotation
					JOINT LeftToeBase
					{
						OFFSET 0.943001 -26.722000 15.023500
						CHANNELS 3 Xrotation Yrotation Zrotation
						End Site
						{
							OFFSET 0 0 0
						}
					}
				}
			}
		}
	}
	JOINT RightUpLeg_virtual
	{
		OFFSET 0.000000 0.000000 0.000000
		CHANNELS 3 Xrotation Yrotation Zrotation
		JOINT RightUpLeg
		{
			OFFSET -18.735201 -5.666702 -4.541200
			CHANNELS 3 Xrotation Yrotation Zrotation
			JOINT RightLeg
			{
				OFFSET 0.018946 -31.938133 0.493100
				CHANNELS 3 Xrotation Yrotation Zrotation
				JOINT RightFoot
				{
					OFFSET -0.018946 -31.938126 -4.336299
					CHANNELS 3 Xrotation Yrotation Zrotation
					JOINT RightToeBase
					{
						OFFSET -0.943001 -26.722004 15.023500
						CHANNELS 3 Xrotation Yrotation Zrotation
						End Site
						{
							OFFSET 0 0 0
						}
					}
				}
			}
		}
	}
	JOINT Hips_virtual
	{
		OFFSET 0.000000 0.000000 0.000000
		CHANNELS 3 Xrotation Yrotation Zrotation
		JOINT Hips
		{
			OFFSET -0.000000 -0.000000 -0.000000
			CHANNELS 3 Xrotation Yrotation Zrotation
			JOINT Spine
			{
				OFFSET 0.000000 10.199997 -0.299500
				CHANNELS 3 Xrotation Yrotation Zrotation
				JOINT Spine1
				{
					OFFSET 0.000000 11.900002 -1.516600
					CHANNELS 3 Xrotation Yrotation Zrotation
					JOINT Spine2
					{
						OFFSET 0.000000 13.600006 -2.842500
						CHANNELS 3 Xrotation Yrotation Zrotation
						JOINT Neck_virtual
						{
							OFFSET 0.000000 0.000000 0.000000
							CHANNELS 3 Xrotation Yrotation Zrotation
							JOINT Neck
							{
								OFFSET 0.000000 9.624100 -2.890100
								CHANNELS 3 Xrotation Yrotation Zrotation
								JOINT Head
								{
									OFFSET 0.000000 14.068802 -1.351900
									CHANNELS 3 Xrotation Yrotation Zrotation
									End Site
									{
										OFFSET 0 0 0
									}
								}
							}
						}
						JOINT LeftShoulder_virtual
						{
							OFFSET 0.000000 0.000000 0.000000
							CHANNELS 3 Xrotation Yrotation Zrotation
							JOINT LeftShoulder
							{
								OFFSET 15.263000 10.923401 -0.547700
								CHANNELS 3 Xrotation Yrotation Zrotation
								JOINT LeftArm
								{
									OFFSET 25.438599 -2.830597 -13.032500
									CHANNELS 3 Xrotation Yrotation Zrotation
									JOINT LeftForeArm
									{
										OFFSET 29.960503 0.000000 0.000000
										CHANNELS 3 Xrotation Yrotation Zrotation
										JOINT LeftHand
										{
											OFFSET 27.849251 0.000000 0.000000
											CHANNELS 3 Xrotation Yrotation Zrotation
											End Site
											{
												OFFSET 0 0 0
											}
										}
									}
								}
							}
						}
						JOINT RightShoulder_virtual
						{
							OFFSET 0.000000 0.000000 0.000000
							CHANNELS 3 Xrotation Yrotation Zrotation
							JOINT RightShoulder
							{
								OFFSET -15.263000 10.923401 -0.547700
								CHANNELS 3 Xrotation Yrotation Zrotation
								JOINT RightArm
								{
									OFFSET -25.438599 -2.830597 -13.032500
									CHANNELS 3 Xrotation Yrotation Zrotation
									JOINT RightForeArm
									{
										OFFSET -29.960503 0.000000 0.000000
										CHANNELS 3 Xrotation Yrotation Zrotation
										JOINT RightHand
										{
											OFFSET -27.849251 0.000000 0.000000
											CHANNELS 3 Xrotation Yrotation Zrotation
											End Site
											{
												OFFSET 0 0 0
											}
										}
									}
								}
							}
						}
					}
				}
			}
		}
	}
}
MOTION
Frames: 12
Frame Time: 0.03333333
0.830696 109.697235 3.362550 0.000000 0.000000 0.000000 -33.611860 -4.656235 4.077638 -79.709858 -0.994387 21.385351 49.342881 16.057326 -14.112884 -6.236751 20.857400 -13.612729 0.000000 0.000000 0.000000 -39.141663 2.972507 -0.534900 -77.190153 3.558414 -14.289272 53.718246 -18.277180 6.194185 -5.575077 -22.267595 6.429187 0.000000 0.000000 0.000000 -21.482835 -9.620862 0.175730 -69.927750 7.239081 10.029320 0.953789 -3.518951 0.566397 -0.674315 -1.374031 0.258600 0.000000 0.000000 0.000000 -0.350633 -1.855652 -0.233147 -2.356587 -0.035888 -0.421130 0.000000 0.000000 0.000000 0.737110 -1.596143 0.805875 0.074232 -4.400525 -6.007972 7.715455 -28.616087 -55.852202 16.065655 -64.020347 4.338059 0.000000 0.000000 0.000000 1.536085 -2.186655 0.999195 0.850659 -1.352985 10.463801 10.176429 26.586913 47.162678 68.992178 84.049514 -62.738955 0.000000 0.000000 0.000000 
0.844589 109.696831 3.334918 0.000000 0.000000 0.000000 -33.561016 -4.717323 4.139418 -79.662074 -1.037682 21.442409 49.420093 16.076939 -14.135624 -6.175851 20.885954 -13.632363 0.000000 0.000000 0.000000 -39.174154 3.045724 -0.620127 -77.209189 3.624959 -14.350576 53.816631 -18.324320 6.278607 -5.497551 -22.346774 6.488738 0.000000 0.000000 0.000000 -21.593995 -9.693585 0.185508 -69.971067 7.489597 10.234406 0.941727 -3.535929 0.547790 -0.680094 -1.361336 0.274711 0.000000 0.000000 0.000000 -0.348248 -1.897895 -0.250114 -2.374078 -0.038378 -0.419631 0.000000 0.000000 0.000000 0.688461 -1.625444 0.809792 0.044917 -4.325411 -5.966844 7.702773 -28.666741 -55.784860 16.200217 -64.210540 4.510484 0.000000 0.000000 0.000000 1.489320 -2.181263 0.992800 0.835972 -1.449269 10.519712 10.197438 26.484210 47.348545 72.153763 84.323419 -65.851138 0.000000 0.000000 0.000000 
0.871129 109.702942 3.288031 0.000000 0.000000 0.000000 -33.477356 -4.815718 4.237013 -79.584251 -1.106752 21.534313 49.565621 16.106636 -14.169040 -6.060044 20.929856 -13.661528 0.000000 0.000000 0.000000 -39.240663 3.162944 -0.771561 -77.251939 3.739061 -14.456037 53.997529 -18.391980 6.425785 -5.353981 -22.471401 6.601974 0.000000 0.000000 0.000000 -21.815134 -9.846056 0.197512 -70.052374 7.958302 10.629451 0.911534 -3.558952 0.513843 -0.689428 -1.338290 0.301597 0.000000 0.000000 0.000000 -0.344418 -1.972430 -0.283279 -2.405408 -0.042898 -0.417355 0.000000 0.000000 0.000000 0.602997 -1.678069 0.816230 -0.006876 -4.187065 -5.887434 7.679118 -28.747522 -55.654574 16.446547 -64.577635 4.836226 0.000000 0.000000 0.000000 1.404564 -2.167145 0.981237 0.804936 -1.625108 10.625952 10.196631 26.267487 47.726961 78.503394 84.781581 -72.105289 0.000000 0.000000 0.000000 
0.907690 109.726059 3.234938 0.000000 0.000000 0.000000 -33.390292 -4.917148 4.329912 -79.504932 -1.175468 21.626107 49.766363 16.132014 -14.194915 -5.897544 20.969451 -13.684899 0.000000 0.000000 0.000000 -39.340315 3.280268 -0.956526 -77.322639 3.870048 -14.577451 54.231839 -18.440175 6.601570 -5.165616 -22.590145 6.759029 0.000000 0.000000 0.000000 -22.137773 -10.087215 0.200792 -70.158194 8.592588 11.186875 0.856051 -3.571582 0.469490 -0.699617 -1.309016 0.330679 0.000000 0.000000 0.000000 -0.340006 -2.063009 -0.330838 -2.444355 -0.048628 -0.415342 0.000000 0.000000 0.000000 0.499751 -1.744414 0.823180 -0.069563 -4.006555 -5.777331 7.655227 -28.823890 -55.466238 16.769566 -65.089988 5.284138 0.000000 0.000000 0.000000 1.296854 -2.139622 0.966887 0.755593 -1.853880 10.775196 10.107895 25.919200 48.302801 87.861259 85.286571 -81.329303 0.000000 0.000000 0.000000 
0.950556 109.775665 3.188289 0.000000 0.000000 0.000000 -33.329097 -4.993814 4.380406 -79.451677 -1.221154 21.684626 50.010153 16.140734 -14.196823 -5.694942 20.988166 -13.688118 0.000000 0.000000 0.000000 -39.464092 3.360722 -1.137974 -77.417722 3.986998 -14.685552 54.481622 -18.434354 6.772408 -4.960909 -22.656895 6.948393 0.000000 0.000000 0.000000 -22.539293 -10.418829 0.187069 -70.265045 9.336354 11.870361 0.773408 -3.559515 0.418887 -0.709669 -1.278256 0.353130 0.000000 0.000000 0.000000 -0.333975 -2.152473 -0.389688 -2.483664 -0.054575 -0.414412 0.000000 0.000000 0.000000 0.398626 -1.814657 0.828987 -0.130195 -3.809629 -5.651010 7.655309 -28.856989 -55.222254 17.132993 -65.694084 5.818275 0.000000 0.000000 0.000000 1.183551 -2.095460 0.953180 0.687727 -2.108534 10.963317 9.870053 25.423289 49.066822 99.477942 85.717460 -92.786808 0.000000 0.000000 0.000000 
0.996119 109.856415 3.157004 0.000000 0.000000 0.000000 -33.310266 -5.033780 4.368411 -79.439239 -1.232657 21.691175 50.286291 16.128672 -14.165674 -5.457386 20.979957 -13.661317 0.000000 0.000000 0.000000 -39.591192 3.392534 -1.284378 -77.520837 4.069417 -14.759830 54.704590 -18.359839 6.915315 -4.773104 -22.648139 7.157969 0.000000 0.000000 0.000000 -22.981660 -10.825764 0.155381 -70.341912 10.142348 12.637711 0.670563 -3.516219 0.363210 -0.721122 -1.249902 0.362247 0.000000 0.000000 0.000000 -0.321679 -2.227335 -0.455612 -2.516332 -0.059805 -0.414829 0.000000 0.000000 0.000000 0.315870 -1.881425 0.832842 -0.177715 -3.621559 -5.529644 7.707725 -28.812255 -54.925926 17.500872 -66.318589 6.398452 0.000000 0.000000 0.000000 1.080579 -2.034883 0.944335 0.604847 -2.368504 11.192041 9.448924 24.772662 49.986531 111.948146 86.022408 -105.091278 0.000000 0.000000 0.000000 
1.042294 109.966385 3.146010 0.000000 0.000000 0.000000 -33.329913 -5.038931 4.296989 -79.462988 -1.210924 21.646717 50.582506 16.102277 -14.101028 -5.192344 20.951221 -13.599290 0.000000 0.000000 0.000000 -39.690776 3.395583 -1.376223 -77.603803 4.112732 -14.793812 54.858580 -18.226064 7.020515 -4.637835 -22.567894 7.373825 0.000000 0.000000 0.000000 -23.418533 -11.272721 0.112595 -70.356761 10.976711 13.443970 0.562372 -3.443931 0.299968 -0.736551 -1.225858 0.354404 0.000000 0.000000 0.000000 -0.294442 -2.279919 -0.524034 -2.536361 -0.063671 -0.416332 0.000000 0.000000 0.000000 0.262842 -1.940463 0.834635 -0.204827 -3.462417 -5.437207 7.825187 -28.665669 -54.589672 17.830444 -66.888958 6.975471 0.000000 0.000000 0.000000 1.000216 -1.961713 0.944721 0.515046 -2.621507 11.467502 8.844801 23.974311 51.004281 123.760965 86.225292 -116.754297 0.000000 0.000000 0.000000 
1.089145 110.097336 3.157997 0.000000 0.000000 0.000000 -33.365044 -5.016304 4.187001 -79.501080 -1.163842 21.567915 50.882771 16.076204 -14.009456 -4.912855 20.917316 -13.500629 0.000000 0.000000 0.000000 -39.729250 3.413313 -1.406852 -77.633761 4.126566 -14.793794 54.905623 -18.061196 7.087314 -4.590116 -22.440834 7.577671 0.000000 0.000000 0.000000 -23.807000 -11.711712 0.069497 -70.285058 11.816978 14.246633 0.467513 -3.350465 0.224296 -0.756548 -1.205847 0.328703 0.000000 0.000000 0.000000 -0.241221 -2.308048 -0.591142 -2.539179 -0.065957 -0.418398 0.000000 0.000000 0.000000 0.246872 -1.989410 0.834388 -0.208141 -3.343566 -5.393678 7.987917 -28.408020 -54.241486 18.067003 -67.346089 7.489209 0.000000 0.000000 0.000000 0.950738 -1.881777 0.957726 0.430279 -2.860995 11.795525 8.086673 23.051731 52.042503 133.980472 86.387727 -126.863251 0.000000 0.000000 0.000000 
1.138116 110.236626 3.195494 0.000000 0.000000 0.000000 -33.384066 -4.970844 4.065189 -79.524664 -1.100023 21.477386 51.169510 16.067402 -13.902148 -4.636869 20.896055 -13.367979 0.000000 0.000000 0.000000 -39.679711 3.494959 -1.378695 -77.583060 4.127550 -14.772647 54.816680 -17.901506 7.117373 -4.659468 -22.299825 7.745376 0.000000 0.000000 0.000000 -24.117815 -12.098445 0.034772 -70.118319 12.647301 15.013852 0.403983 -3.244534 0.131831 -0.777378 -1.188194 0.286060 0.000000 0.000000 0.000000 -0.151872 -2.313331 -0.654796 -2.521996 -0.066855 -0.420514 0.000000 0.000000 0.000000 0.272197 -2.025903 0.831733 -0.187220 -3.265358 -5.408575 8.144751 -28.047735 -53.921540 18.152554 -67.659868 7.878747 0.000000 0.000000 0.000000 0.937428 -1.800548 0.984480 0.364005 -3.081952 12.176501 7.220704 22.044603 53.012940 142.341566 86.566863 -135.173241 0.000000 0.000000 0.000000 
1.190565 110.370415 3.261348 0.000000 0.000000 0.000000 -33.360826 -4.904183 3.952792 -79.510608 -1.025407 21.393954 51.430081 16.088478 -13.793198 -4.382185 20.901347 -13.209819 0.000000 0.000000 0.000000 -39.529365 3.676173 -1.298466 -77.437270 4.130670 -14.742775 54.576579 -17.780835 7.109814 -4.863691 -22.174486 7.848647 0.000000 0.000000 0.000000 -24.338580 -12.406812 0.011130 -69.870711 13.452934 15.731394 0.385957 -3.132439 0.021377 -0.790929 -1.171071 0.228286 0.000000 0.000000 0.000000 -0.020010 -2.299372 -0.714788 -2.484012 -0.066772 -0.422329 0.000000 0.000000 0.000000 0.340062 -2.046466 0.825637 -0.143350 -3.216732 -5.478243 8.232868 -27.610615 -53.668717 18.045910 -67.831367 8.101378 0.000000 0.000000 0.000000 0.963790 -1.721460 1.023218 0.327993 -3.278016 12.602565 6.299630 21.006441 53.827252 148.922877 86.794602 -141.777215 0.000000 0.000000 0.000000 
1.246520 110.487785 3.357495 0.000000 0.000000 0.000000 -33.285513 -4.817643 3.860208 -79.450837 -0.943621 21.327483 51.661949 16.143437 -13.698031 -4.160894 20.939364 -13.041409 0.000000 0.000000 0.000000 -39.281934 3.966723 -1.174066 -77.198234 4.143443 -14.711741 54.188170 -17.723356 7.060416 -5.203417 -22.084489 7.860175 0.000000 0.000000 0.000000 -24.470485 -12.633415 -0.004219 -69.580592 14.215622 16.403447 0.422214 -3.017629 -0.104113 -0.786993 -1.153280 0.157481 0.000000 0.000000 0.000000 0.156105 -2.270584 -0.772419 -2.426086 -0.066123 -0.423700 0.000000 0.000000 0.000000 0.448429 -2.046855 0.814464 -0.078529 -3.177077 -5.588337 8.205060 -27.135059 -53.504495 17.741777 -67.884103 8.149325 0.000000 0.000000 0.000000 1.032318 -1.645596 1.069794 0.329570 -3.441272 13.058141 5.375199 20.001120 54.407125 153.836720 87.076244 -146.794043 0.000000 0.000000 0.000000 
1.304522 110.584625 3.481924 0.000000 0.000000 0.000000 -33.166975 -4.715388 3.788265 -79.353657 -0.857987 21.279238 51.872326 16.227252 -13.631340 -3.977232 21.008009 -12.883074 0.000000 0.000000 0.000000 -38.955731 4.349993 -1.013687 -76.882638 4.165146 -14.681543 53.673771 -17.740175 6.964578 -5.659993 -22.037959 7.761088 0.000000 0.000000 0.000000 -24.521899 -12.789395 -0.015417 -69.305151 14.911119 17.044602 0.516072 -2.902250 -0.238747 -0.756370 -1.134417 0.075785 0.000000 0.000000 0.000000 0.375147 -2.231670 -0.829639 -2.349902 -0.065171 -0.424664 0.000000 0.000000 0.000000 0.592505 -2.023536 0.796336 0.005260 -3.120834 -5.720241 8.048750 -26.663771 -53.423052 17.275905 -67.851072 8.053208 0.000000 0.000000 0.000000 1.144670 -1.572641 1.119255 0.370553 -3.564695 13.523384 4.493220 19.097180 54.692952 157.057208 87.393759 -150.196693 0.000000 0.000000 0.000000 
